<?xml version="1.0" encoding="utf-8" standalone="no"?>
<!DOCTYPE svg PUBLIC "-//W3C//DTD SVG 1.1//EN"
  "http://www.w3.org/Graphics/SVG/1.1/DTD/svg11.dtd">
<!-- Created with matplotlib (http://matplotlib.org/) -->
<svg height="345pt" version="1.1" viewBox="0 0 460 345" width="460pt" xmlns="http://www.w3.org/2000/svg" xmlns:xlink="http://www.w3.org/1999/xlink">
 <defs>
  <style type="text/css">
*{stroke-linecap:butt;stroke-linejoin:round;}
  </style>
 </defs>
 <g id="figure_1">
  <g id="patch_1">
   <path d="M 0 345.6 
L 460.8 345.6 
L 460.8 0 
L 0 0 
z
" style="fill:#ffffff;"/>
  </g>
  <g id="axes_1">
   <g id="patch_2">
    <path d="M 57.6 307.584 
L 414.72 307.584 
L 414.72 41.472 
L 57.6 41.472 
z
" style="fill:#ffffff;"/>
   </g>
   <g id="matplotlib.axis_1">
    <g id="xtick_1">
     <g id="line2d_1">
      <defs>
       <path d="M 0 0 
L 0 3.5 
" id="m436606e4cd" style="stroke:#000000;stroke-width:0.8;"/>
      </defs>
      <g>
       <use style="stroke:#000000;stroke-width:0.8;" x="73.290659" xlink:href="#m436606e4cd" y="307.584"/>
      </g>
     </g>
     <g id="text_1">
      <!-- 0 -->
      <defs>
       <path d="M 31.78125 66.40625 
Q 24.171875 66.40625 20.328125 58.90625 
Q 16.5 51.421875 16.5 36.375 
Q 16.5 21.390625 20.328125 13.890625 
Q 24.171875 6.390625 31.78125 6.390625 
Q 39.453125 6.390625 43.28125 13.890625 
Q 47.125 21.390625 47.125 36.375 
Q 47.125 51.421875 43.28125 58.90625 
Q 39.453125 66.40625 31.78125 66.40625 
z
M 31.78125 74.21875 
Q 44.046875 74.21875 50.515625 64.515625 
Q 56.984375 54.828125 56.984375 36.375 
Q 56.984375 17.96875 50.515625 8.265625 
Q 44.046875 -1.421875 31.78125 -1.421875 
Q 19.53125 -1.421875 13.0625 8.265625 
Q 6.59375 17.96875 6.59375 36.375 
Q 6.59375 54.828125 13.0625 64.515625 
Q 19.53125 74.21875 31.78125 74.21875 
z
" id="DejaVuSans-30"/>
      </defs>
      <g transform="translate(70.109409 322.182437)scale(0.1 -0.1)">
       <use xlink:href="#DejaVuSans-30"/>
      </g>
     </g>
    </g>
    <g id="xtick_2">
     <g id="line2d_2">
      <g>
       <use style="stroke:#000000;stroke-width:0.8;" x="127.508586" xlink:href="#m436606e4cd" y="307.584"/>
      </g>
     </g>
     <g id="text_2">
      <!-- 100 -->
      <defs>
       <path d="M 12.40625 8.296875 
L 28.515625 8.296875 
L 28.515625 63.921875 
L 10.984375 60.40625 
L 10.984375 69.390625 
L 28.421875 72.90625 
L 38.28125 72.90625 
L 38.28125 8.296875 
L 54.390625 8.296875 
L 54.390625 0 
L 12.40625 0 
z
" id="DejaVuSans-31"/>
      </defs>
      <g transform="translate(117.964836 322.182437)scale(0.1 -0.1)">
       <use xlink:href="#DejaVuSans-31"/>
       <use x="63.623047" xlink:href="#DejaVuSans-30"/>
       <use x="127.246094" xlink:href="#DejaVuSans-30"/>
      </g>
     </g>
    </g>
    <g id="xtick_3">
     <g id="line2d_3">
      <g>
       <use style="stroke:#000000;stroke-width:0.8;" x="181.726513" xlink:href="#m436606e4cd" y="307.584"/>
      </g>
     </g>
     <g id="text_3">
      <!-- 200 -->
      <defs>
       <path d="M 19.1875 8.296875 
L 53.609375 8.296875 
L 53.609375 0 
L 7.328125 0 
L 7.328125 8.296875 
Q 12.9375 14.109375 22.625 23.890625 
Q 32.328125 33.6875 34.8125 36.53125 
Q 39.546875 41.84375 41.421875 45.53125 
Q 43.3125 49.21875 43.3125 52.78125 
Q 43.3125 58.59375 39.234375 62.25 
Q 35.15625 65.921875 28.609375 65.921875 
Q 23.96875 65.921875 18.8125 64.3125 
Q 13.671875 62.703125 7.8125 59.421875 
L 7.8125 69.390625 
Q 13.765625 71.78125 18.9375 73 
Q 24.125 74.21875 28.421875 74.21875 
Q 39.75 74.21875 46.484375 68.546875 
Q 53.21875 62.890625 53.21875 53.421875 
Q 53.21875 48.921875 51.53125 44.890625 
Q 49.859375 40.875 45.40625 35.40625 
Q 44.1875 33.984375 37.640625 27.21875 
Q 31.109375 20.453125 19.1875 8.296875 
z
" id="DejaVuSans-32"/>
      </defs>
      <g transform="translate(172.182763 322.182437)scale(0.1 -0.1)">
       <use xlink:href="#DejaVuSans-32"/>
       <use x="63.623047" xlink:href="#DejaVuSans-30"/>
       <use x="127.246094" xlink:href="#DejaVuSans-30"/>
      </g>
     </g>
    </g>
    <g id="xtick_4">
     <g id="line2d_4">
      <g>
       <use style="stroke:#000000;stroke-width:0.8;" x="235.94444" xlink:href="#m436606e4cd" y="307.584"/>
      </g>
     </g>
     <g id="text_4">
      <!-- 300 -->
      <defs>
       <path d="M 40.578125 39.3125 
Q 47.65625 37.796875 51.625 33 
Q 55.609375 28.21875 55.609375 21.1875 
Q 55.609375 10.40625 48.1875 4.484375 
Q 40.765625 -1.421875 27.09375 -1.421875 
Q 22.515625 -1.421875 17.65625 -0.515625 
Q 12.796875 0.390625 7.625 2.203125 
L 7.625 11.71875 
Q 11.71875 9.328125 16.59375 8.109375 
Q 21.484375 6.890625 26.8125 6.890625 
Q 36.078125 6.890625 40.9375 10.546875 
Q 45.796875 14.203125 45.796875 21.1875 
Q 45.796875 27.640625 41.28125 31.265625 
Q 36.765625 34.90625 28.71875 34.90625 
L 20.21875 34.90625 
L 20.21875 43.015625 
L 29.109375 43.015625 
Q 36.375 43.015625 40.234375 45.921875 
Q 44.09375 48.828125 44.09375 54.296875 
Q 44.09375 59.90625 40.109375 62.90625 
Q 36.140625 65.921875 28.71875 65.921875 
Q 24.65625 65.921875 20.015625 65.03125 
Q 15.375 64.15625 9.8125 62.3125 
L 9.8125 71.09375 
Q 15.4375 72.65625 20.34375 73.4375 
Q 25.25 74.21875 29.59375 74.21875 
Q 40.828125 74.21875 47.359375 69.109375 
Q 53.90625 64.015625 53.90625 55.328125 
Q 53.90625 49.265625 50.4375 45.09375 
Q 46.96875 40.921875 40.578125 39.3125 
z
" id="DejaVuSans-33"/>
      </defs>
      <g transform="translate(226.40069 322.182437)scale(0.1 -0.1)">
       <use xlink:href="#DejaVuSans-33"/>
       <use x="63.623047" xlink:href="#DejaVuSans-30"/>
       <use x="127.246094" xlink:href="#DejaVuSans-30"/>
      </g>
     </g>
    </g>
    <g id="xtick_5">
     <g id="line2d_5">
      <g>
       <use style="stroke:#000000;stroke-width:0.8;" x="290.162368" xlink:href="#m436606e4cd" y="307.584"/>
      </g>
     </g>
     <g id="text_5">
      <!-- 400 -->
      <defs>
       <path d="M 37.796875 64.3125 
L 12.890625 25.390625 
L 37.796875 25.390625 
z
M 35.203125 72.90625 
L 47.609375 72.90625 
L 47.609375 25.390625 
L 58.015625 25.390625 
L 58.015625 17.1875 
L 47.609375 17.1875 
L 47.609375 0 
L 37.796875 0 
L 37.796875 17.1875 
L 4.890625 17.1875 
L 4.890625 26.703125 
z
" id="DejaVuSans-34"/>
      </defs>
      <g transform="translate(280.618618 322.182437)scale(0.1 -0.1)">
       <use xlink:href="#DejaVuSans-34"/>
       <use x="63.623047" xlink:href="#DejaVuSans-30"/>
       <use x="127.246094" xlink:href="#DejaVuSans-30"/>
      </g>
     </g>
    </g>
    <g id="xtick_6">
     <g id="line2d_6">
      <g>
       <use style="stroke:#000000;stroke-width:0.8;" x="344.380295" xlink:href="#m436606e4cd" y="307.584"/>
      </g>
     </g>
     <g id="text_6">
      <!-- 500 -->
      <defs>
       <path d="M 10.796875 72.90625 
L 49.515625 72.90625 
L 49.515625 64.59375 
L 19.828125 64.59375 
L 19.828125 46.734375 
Q 21.96875 47.46875 24.109375 47.828125 
Q 26.265625 48.1875 28.421875 48.1875 
Q 40.625 48.1875 47.75 41.5 
Q 54.890625 34.8125 54.890625 23.390625 
Q 54.890625 11.625 47.5625 5.09375 
Q 40.234375 -1.421875 26.90625 -1.421875 
Q 22.3125 -1.421875 17.546875 -0.640625 
Q 12.796875 0.140625 7.71875 1.703125 
L 7.71875 11.625 
Q 12.109375 9.234375 16.796875 8.0625 
Q 21.484375 6.890625 26.703125 6.890625 
Q 35.15625 6.890625 40.078125 11.328125 
Q 45.015625 15.765625 45.015625 23.390625 
Q 45.015625 31 40.078125 35.4375 
Q 35.15625 39.890625 26.703125 39.890625 
Q 22.75 39.890625 18.8125 39.015625 
Q 14.890625 38.140625 10.796875 36.28125 
z
" id="DejaVuSans-35"/>
      </defs>
      <g transform="translate(334.836545 322.182437)scale(0.1 -0.1)">
       <use xlink:href="#DejaVuSans-35"/>
       <use x="63.623047" xlink:href="#DejaVuSans-30"/>
       <use x="127.246094" xlink:href="#DejaVuSans-30"/>
      </g>
     </g>
    </g>
    <g id="xtick_7">
     <g id="line2d_7">
      <g>
       <use style="stroke:#000000;stroke-width:0.8;" x="398.598222" xlink:href="#m436606e4cd" y="307.584"/>
      </g>
     </g>
     <g id="text_7">
      <!-- 600 -->
      <defs>
       <path d="M 33.015625 40.375 
Q 26.375 40.375 22.484375 35.828125 
Q 18.609375 31.296875 18.609375 23.390625 
Q 18.609375 15.53125 22.484375 10.953125 
Q 26.375 6.390625 33.015625 6.390625 
Q 39.65625 6.390625 43.53125 10.953125 
Q 47.40625 15.53125 47.40625 23.390625 
Q 47.40625 31.296875 43.53125 35.828125 
Q 39.65625 40.375 33.015625 40.375 
z
M 52.59375 71.296875 
L 52.59375 62.3125 
Q 48.875 64.0625 45.09375 64.984375 
Q 41.3125 65.921875 37.59375 65.921875 
Q 27.828125 65.921875 22.671875 59.328125 
Q 17.53125 52.734375 16.796875 39.40625 
Q 19.671875 43.65625 24.015625 45.921875 
Q 28.375 48.1875 33.59375 48.1875 
Q 44.578125 48.1875 50.953125 41.515625 
Q 57.328125 34.859375 57.328125 23.390625 
Q 57.328125 12.15625 50.6875 5.359375 
Q 44.046875 -1.421875 33.015625 -1.421875 
Q 20.359375 -1.421875 13.671875 8.265625 
Q 6.984375 17.96875 6.984375 36.375 
Q 6.984375 53.65625 15.1875 63.9375 
Q 23.390625 74.21875 37.203125 74.21875 
Q 40.921875 74.21875 44.703125 73.484375 
Q 48.484375 72.75 52.59375 71.296875 
z
" id="DejaVuSans-36"/>
      </defs>
      <g transform="translate(389.054472 322.182437)scale(0.1 -0.1)">
       <use xlink:href="#DejaVuSans-36"/>
       <use x="63.623047" xlink:href="#DejaVuSans-30"/>
       <use x="127.246094" xlink:href="#DejaVuSans-30"/>
      </g>
     </g>
    </g>
   </g>
   <g id="matplotlib.axis_2">
    <g id="ytick_1">
     <g id="line2d_8">
      <defs>
       <path d="M 0 0 
L -3.5 0 
" id="mf63647dc1e" style="stroke:#000000;stroke-width:0.8;"/>
      </defs>
      <g>
       <use style="stroke:#000000;stroke-width:0.8;" x="57.6" xlink:href="#mf63647dc1e" y="280.078386"/>
      </g>
     </g>
     <g id="text_8">
      <!-- −1.5 -->
      <defs>
       <path d="M 10.59375 35.5 
L 73.1875 35.5 
L 73.1875 27.203125 
L 10.59375 27.203125 
z
" id="DejaVuSans-2212"/>
       <path d="M 10.6875 12.40625 
L 21 12.40625 
L 21 0 
L 10.6875 0 
z
" id="DejaVuSans-2e"/>
      </defs>
      <g transform="translate(26.317187 283.877604)scale(0.1 -0.1)">
       <use xlink:href="#DejaVuSans-2212"/>
       <use x="83.789062" xlink:href="#DejaVuSans-31"/>
       <use x="147.412109" xlink:href="#DejaVuSans-2e"/>
       <use x="179.199219" xlink:href="#DejaVuSans-35"/>
      </g>
     </g>
    </g>
    <g id="ytick_2">
     <g id="line2d_9">
      <g>
       <use style="stroke:#000000;stroke-width:0.8;" x="57.6" xlink:href="#mf63647dc1e" y="234.456896"/>
      </g>
     </g>
     <g id="text_9">
      <!-- −1.0 -->
      <g transform="translate(26.317187 238.256115)scale(0.1 -0.1)">
       <use xlink:href="#DejaVuSans-2212"/>
       <use x="83.789062" xlink:href="#DejaVuSans-31"/>
       <use x="147.412109" xlink:href="#DejaVuSans-2e"/>
       <use x="179.199219" xlink:href="#DejaVuSans-30"/>
      </g>
     </g>
    </g>
    <g id="ytick_3">
     <g id="line2d_10">
      <g>
       <use style="stroke:#000000;stroke-width:0.8;" x="57.6" xlink:href="#mf63647dc1e" y="188.835406"/>
      </g>
     </g>
     <g id="text_10">
      <!-- −0.5 -->
      <g transform="translate(26.317187 192.634625)scale(0.1 -0.1)">
       <use xlink:href="#DejaVuSans-2212"/>
       <use x="83.789062" xlink:href="#DejaVuSans-30"/>
       <use x="147.412109" xlink:href="#DejaVuSans-2e"/>
       <use x="179.199219" xlink:href="#DejaVuSans-35"/>
      </g>
     </g>
    </g>
    <g id="ytick_4">
     <g id="line2d_11">
      <g>
       <use style="stroke:#000000;stroke-width:0.8;" x="57.6" xlink:href="#mf63647dc1e" y="143.213917"/>
      </g>
     </g>
     <g id="text_11">
      <!-- 0.0 -->
      <g transform="translate(34.696875 147.013136)scale(0.1 -0.1)">
       <use xlink:href="#DejaVuSans-30"/>
       <use x="63.623047" xlink:href="#DejaVuSans-2e"/>
       <use x="95.410156" xlink:href="#DejaVuSans-30"/>
      </g>
     </g>
    </g>
    <g id="ytick_5">
     <g id="line2d_12">
      <g>
       <use style="stroke:#000000;stroke-width:0.8;" x="57.6" xlink:href="#mf63647dc1e" y="97.592427"/>
      </g>
     </g>
     <g id="text_12">
      <!-- 0.5 -->
      <g transform="translate(34.696875 101.391646)scale(0.1 -0.1)">
       <use xlink:href="#DejaVuSans-30"/>
       <use x="63.623047" xlink:href="#DejaVuSans-2e"/>
       <use x="95.410156" xlink:href="#DejaVuSans-35"/>
      </g>
     </g>
    </g>
    <g id="ytick_6">
     <g id="line2d_13">
      <g>
       <use style="stroke:#000000;stroke-width:0.8;" x="57.6" xlink:href="#mf63647dc1e" y="51.970938"/>
      </g>
     </g>
     <g id="text_13">
      <!-- 1.0 -->
      <g transform="translate(34.696875 55.770156)scale(0.1 -0.1)">
       <use xlink:href="#DejaVuSans-31"/>
       <use x="63.623047" xlink:href="#DejaVuSans-2e"/>
       <use x="95.410156" xlink:href="#DejaVuSans-30"/>
      </g>
     </g>
    </g>
   </g>
   <g id="line2d_14">
    <path clip-path="url(#ped124a746f)" d="M 73.832727 53.568 
L 74.374131 58.35723 
L 74.914465 65.852445 
L 75.992539 85.434126 
L 77.608569 116.481104 
L 78.688352 133.166561 
L 79.229213 139.513235 
L 79.770607 144.402397 
L 80.312394 147.847657 
L 80.854427 149.932838 
L 81.396579 150.794145 
L 81.938754 150.602545 
L 82.480896 149.548288 
L 83.022978 147.828297 
L 84.106979 143.155333 
L 86.274905 133.325446 
L 87.359074 129.936732 
L 87.901211 128.803598 
L 88.443372 128.053778 
L 88.985546 127.671389 
L 89.527725 127.626465 
L 90.069902 127.878572 
L 90.612073 128.380324 
L 91.696392 129.927674 
L 93.322838 132.830199 
L 94.949289 135.655087 
L 96.033615 137.063974 
L 97.117956 138.0832 
L 98.202305 138.834872 
L 99.286661 139.285271 
L 101.455376 139.763472 
L 103.081911 140.255203 
L 104.166264 140.808939 
L 105.250613 141.581309 
L 106.334956 142.566388 
L 107.961458 144.378328 
L 110.130109 147.223778 
L 112.840902 151.202989 
L 115.009518 154.72435 
L 117.178108 158.680675 
L 119.34666 163.181505 
L 121.515168 168.239831 
L 124.225749 175.202906 
L 133.983756 201.153297 
L 136.152274 206.088155 
L 138.320834 210.478032 
L 140.489433 214.291411 
L 142.658064 217.540159 
L 144.284554 219.63164 
L 146.453225 222.008095 
L 148.62191 223.973519 
L 150.790606 225.591309 
L 152.959309 226.918595 
L 155.128016 228.005166 
L 157.838905 229.089605 
L 160.549797 229.934658 
L 163.802869 230.711119 
L 167.598122 231.380298 
L 172.477734 231.987589 
L 178.441705 232.488408 
L 181.694781 232.690792 
L 182.236506 229.464624 
L 182.776339 221.059291 
L 183.85095 196.716671 
L 185.460102 156.820135 
L 186.536728 135.14155 
L 187.076677 126.892466 
L 187.617542 120.568943 
L 188.159079 116.162755 
L 188.70103 113.563275 
L 189.243172 112.585913 
L 189.785342 113.000034 
L 190.32744 114.552051 
L 190.869425 116.98271 
L 191.953092 123.485165 
L 194.120259 137.257538 
L 195.2042 142.295823 
L 195.746272 144.100746 
L 196.288395 145.414895 
L 196.83055 146.257182 
L 197.372724 146.665086 
L 197.914902 146.689958 
L 198.457079 146.392437 
L 198.999248 145.838207 
L 200.083564 144.22553 
L 202.794334 139.856677 
L 203.878673 138.770875 
L 204.963027 138.214553 
L 206.047385 138.139956 
L 207.131742 138.358608 
L 208.216097 138.866621 
L 211.469154 140.707824 
L 212.55351 141.076856 
L 213.637868 141.26361 
L 215.264406 141.262739 
L 221.228377 140.783928 
L 223.939273 140.997164 
L 228.818886 141.422375 
L 234.240678 141.553265 
L 235.867216 141.594536 
L 236.409283 143.208376 
L 236.950919 147.26082 
L 238.033043 158.931714 
L 240.1964 184.540039 
L 241.279272 194.04056 
L 241.821068 197.464166 
L 242.363041 199.965192 
L 242.905134 201.574482 
L 243.447291 202.359824 
L 243.989469 202.416314 
L 244.531637 201.857075 
L 245.07378 200.804895 
L 246.157982 197.71931 
L 248.868405 189.22156 
L 249.95268 186.967796 
L 250.494841 186.213054 
L 251.037011 185.70407 
L 251.579188 185.425573 
L 252.121367 185.354227 
L 252.663546 185.460955 
L 253.747898 186.076716 
L 254.832244 186.958902 
L 257.000929 188.930776 
L 258.085279 189.646704 
L 259.169635 190.057055 
L 260.253993 190.165126 
L 261.338351 190.029803 
L 263.507065 189.389499 
L 265.675779 188.804887 
L 267.302317 188.616476 
L 268.928854 188.639565 
L 275.977184 189.093908 
L 289.531666 188.944241 
L 290.073845 188.944862 
L 290.615914 190.54159 
L 291.157555 194.57585 
L 292.239695 206.204733 
L 294.403091 231.717662 
L 295.485979 241.170466 
L 296.027779 244.571167 
L 296.569756 247.050156 
L 297.111851 248.638374 
L 297.65401 249.403651 
L 298.196188 249.441077 
L 298.738355 248.863733 
L 299.280497 247.794337 
L 300.364696 244.676618 
L 303.075111 236.106909 
L 304.159383 233.826096 
L 304.701543 233.057859 
L 305.243713 232.535352 
L 305.78589 232.243284 
L 306.328069 232.158314 
L 306.870248 232.251371 
L 307.9546 232.839704 
L 309.038947 233.694471 
L 311.207634 235.612425 
L 312.291985 236.302315 
L 313.376341 236.687448 
L 314.460699 236.77118 
L 315.545057 236.612376 
L 317.71377 235.927379 
L 319.882484 235.300429 
L 321.509021 235.081429 
L 323.135559 235.074801 
L 330.726068 235.39249 
L 339.943116 235.098128 
L 344.28055 235.075688 
L 344.822619 236.666338 
L 345.364262 240.694566 
L 346.446406 252.31164 
L 348.609812 277.801831 
L 349.692703 287.243668 
L 350.234505 290.638984 
L 350.776482 293.112654 
L 351.318578 294.695617 
L 351.860737 295.455703 
L 352.402915 295.488 
L 352.945082 294.905589 
L 353.487223 293.831185 
L 354.571421 290.703624 
L 357.281834 282.110273 
L 358.366106 279.820415 
L 358.908265 279.047735 
L 359.450435 278.520836 
L 359.992612 278.224426 
L 360.53479 278.135167 
L 361.076969 278.223983 
L 362.161322 278.803984 
L 363.245669 279.650566 
L 365.414357 281.552785 
L 366.498707 282.23512 
L 367.583064 282.612892 
L 368.667422 282.689443 
L 369.75178 282.523628 
L 371.920493 281.825084 
L 374.089207 281.185191 
L 375.715744 280.956869 
L 377.342282 280.941245 
L 384.932791 281.221045 
L 394.149839 280.888468 
L 398.487273 280.850569 
L 398.487273 280.850569 
" style="fill:none;stroke:#008000;stroke-linecap:square;stroke-width:1.5;"/>
   </g>
   <g id="line2d_15">
    <path clip-path="url(#ped124a746f)" d="M 73.832727 143.439526 
L 81.396579 143.734816 
L 86.81697 144.158623 
L 91.154236 144.730955 
L 94.407133 145.372778 
L 97.117956 146.10415 
L 99.828839 147.072562 
L 101.997554 148.063585 
L 104.166264 149.291432 
L 106.334956 150.802841 
L 108.503622 152.648482 
L 110.672269 154.880387 
L 112.298745 156.837674 
L 114.467366 159.858965 
L 116.635963 163.376233 
L 118.804526 167.395806 
L 120.973045 171.8934 
L 123.683637 178.09174 
L 127.478397 187.467172 
L 132.899511 200.862364 
L 135.610141 206.943964 
L 137.77869 211.326252 
L 139.94728 215.221207 
L 142.115903 218.612859 
L 144.284554 221.513982 
L 146.453225 223.957865 
L 148.62191 225.990191 
L 150.790606 227.662219 
L 152.959309 229.025716 
L 155.128016 230.129618 
L 157.296727 231.018141 
L 160.007618 231.884274 
L 163.26069 232.646607 
L 167.055943 233.259303 
L 171.393376 233.712119 
L 176.815168 234.046643 
L 181.694781 234.217372 
L 182.236506 143.213917 
L 235.867216 143.213917 
L 236.409283 188.835406 
L 290.073845 188.835406 
L 290.615914 234.456896 
L 344.28055 234.456896 
L 344.822619 280.078386 
L 398.487273 280.078386 
L 398.487273 280.078386 
" style="fill:none;stroke:#ff0000;stroke-linecap:square;stroke-width:1.5;"/>
   </g>
   <g id="patch_3">
    <path d="M 57.6 307.584 
L 57.6 41.472 
" style="fill:none;stroke:#000000;stroke-linecap:square;stroke-linejoin:miter;stroke-width:0.8;"/>
   </g>
   <g id="patch_4">
    <path d="M 414.72 307.584 
L 414.72 41.472 
" style="fill:none;stroke:#000000;stroke-linecap:square;stroke-linejoin:miter;stroke-width:0.8;"/>
   </g>
   <g id="patch_5">
    <path d="M 57.6 307.584 
L 414.72 307.584 
" style="fill:none;stroke:#000000;stroke-linecap:square;stroke-linejoin:miter;stroke-width:0.8;"/>
   </g>
   <g id="patch_6">
    <path d="M 57.6 41.472 
L 414.72 41.472 
" style="fill:none;stroke:#000000;stroke-linecap:square;stroke-linejoin:miter;stroke-width:0.8;"/>
   </g>
  </g>
 </g>
 <defs>
  <clipPath id="ped124a746f">
   <rect height="266.112" width="357.12" x="57.6" y="41.472"/>
  </clipPath>
 </defs>
</svg>
